<?xml version="1.0" standalone="no"?>
<!DOCTYPE svg PUBLIC "-//W3C//DTD SVG 1.1//EN" "http://www.w3.org/Graphics/SVG/1.1/DTD/svg11.dtd" >
<svg xmlns="http://www.w3.org/2000/svg">
<metadata>
Created by FontForge 20120731 at Wed Aug  3 11:35:34 2016
 By admin
</metadata>
<defs>
<font id="iconfont" horiz-adv-x="1024" >
  <font-face 
    font-family="iconfont"
    font-weight="500"
    font-stretch="normal"
    units-per-em="1024"
    panose-1="2 0 6 3 0 0 0 0 0 0"
    ascent="896"
    descent="-128"
    x-height="792"
    bbox="0 -224 1260 896"
    underline-thickness="50"
    underline-position="-100"
    unicode-range="U+0078-E63A"
  />
<missing-glyph horiz-adv-x="374" 
d="M34 0v682h272v-682h-272zM68 34h204v614h-204v-614z" />
    <glyph glyph-name=".notdef" horiz-adv-x="374" 
d="M34 0v682h272v-682h-272zM68 34h204v614h-204v-614z" />
    <glyph glyph-name=".null" horiz-adv-x="0" 
 />
    <glyph glyph-name="nonmarkingreturn" horiz-adv-x="341" 
 />
    <glyph glyph-name="x" unicode="x" horiz-adv-x="1001" 
d="M281 543q-27 -1 -53 -1h-83q-18 0 -36.5 -6t-32.5 -18.5t-23 -32t-9 -45.5v-76h912v41q0 16 -0.5 30t-0.5 18q0 13 -5 29t-17 29.5t-31.5 22.5t-49.5 9h-133v-97h-438v97zM955 310v-52q0 -23 0.5 -52t0.5 -58t-10.5 -47.5t-26 -30t-33 -16t-31.5 -4.5q-14 -1 -29.5 -0.5
t-29.5 0.5h-32l-45 128h-439l-44 -128h-29h-34q-20 0 -45 1q-25 0 -41 9.5t-25.5 23t-13.5 29.5t-4 30v167h911zM163 247q-12 0 -21 -8.5t-9 -21.5t9 -21.5t21 -8.5q13 0 22 8.5t9 21.5t-9 21.5t-22 8.5zM316 123q-8 -26 -14 -48q-5 -19 -10.5 -37t-7.5 -25t-3 -15t1 -14.5
t9.5 -10.5t21.5 -4h37h67h81h80h64h36q23 0 34 12t2 38q-5 13 -9.5 30.5t-9.5 34.5q-5 19 -11 39h-368zM336 498v228q0 11 2.5 23t10 21.5t20.5 15.5t34 6h188q31 0 51.5 -14.5t20.5 -52.5v-227h-327z" />
    <glyph glyph-name="uniE600" unicode="&#xe600;" 
d="M186 226q289 -99 332 -115q30 -12 52 -12t28 6l6 6q378 458 390 475q6 12 2.5 21.5t-9.5 15.5l-7 7l-448 115q-8 2 -29 0q-9 -1 -16 -4.5t-10 -6.5l-3 -3q-368 -405 -404 -462q-16 -25 -26.5 -53.5t-13.5 -45.5l-3 -16q-2 -41 13 -75.5t34.5 -54t44.5 -34t36 -18.5t16 -5
l433 -130l390 461v144q-13 14 -27.5 14t-22.5 -7l-8 -7v-115l-361 -418q-393 134 -432 144q-11 3 -19.5 11.5t-13 18t-7 20t-3.5 16t-1 6.5q-3 32 4.5 54t21 30.5t27.5 14t23.5 3t10.5 -0.5zM433 557l41 44q7 5 13 6.5t10 0.5t10.5 -3.5t10.5 -3.5l259 -72q2 -1 5 -2
q12 -4 15.5 -6t3 -7t-8.5 -14l-29 -29q-11 -11 -20.5 -15.5t-13 -5t-13.5 3t-11 3.5l-251 65q-18 5 -23.5 8t-6 9.5t8.5 17.5z" />
    <glyph glyph-name="uniE601" unicode="&#xe601;" 
d="M889 392l-26 -26q-32 71 -89.5 124t-131.5 79l35 35q1 1 4 3t3 3v15q0 24 -17 41t-41 17h-228q-24 0 -41 -17t-17 -41v-15q0 -1 2.5 -3t4.5 -3l35 -35q-74 -26 -131.5 -79t-89.5 -124l-26 26q-30 30 -30 72.5t30 72.5l67 67q28 28 68 30q3 50 40 85t88 35h228
q51 0 88 -35t40 -85q40 -2 68 -30l67 -67q30 -30 30 -72.5t-30 -72.5zM872 206q0 -122 -75 -219l62 -62q13 -14 13 -33t-13.5 -32.5t-32.5 -13.5t-32 14l-62 62q-98 -76 -220 -76t-220 76l-62 -62q-13 -14 -32 -14t-32.5 13.5t-13.5 32.5t13 33l62 62q-75 97 -75 219
q0 98 48 181t131 131t181 48t181 -48t131 -131t48 -181zM512 -62q111 0 189.5 78.5t78.5 189.5t-78.5 189.5t-189.5 78.5t-189.5 -78.5t-78.5 -189.5t78.5 -189.5t189.5 -78.5zM664 359q-6 6 -13 1l-127 -87l22 -15l2 -1q5 -3 8 -7q16 -16 18 -39l92 134q5 7 -2 14zM540 245
l-1 2l-166 113q-7 5 -13.5 -1t-1.5 -14l113 -165h1v-1l1 -1q2 -3 5 -6q14 -14 34 -14t34 14t14 34t-14 35q-2 2 -6 4z" />
    <glyph glyph-name="uniE602" unicode="&#xe602;" 
d="M682 807q82 0 139.5 -57.5t57.5 -138.5v-821h-5l-364 290l-363 -290h-5v1017h540zM364 244l146 101l146 -101l-51 170l141 107l-177 4l-59 168l-58 -168l-178 -4l142 -107z" />
    <glyph glyph-name="uniE603" unicode="&#xe603;" 
d="M914 412h-491q-25 0 -35 -10t-10 -35v-134q0 -25 10 -35t35 -10h491q25 0 35 10t10 35v134q0 25 -10 35t-35 10zM914 725h-491q-25 0 -35 -10t-10 -35v-134q0 -25 10 -35t35 -10h491q25 0 35 10t10 35v134q0 25 -10 35t-35 10zM244 412h-134q-25 0 -35 -10t-10 -35v-134
q0 -25 10 -35t35 -10h134q25 0 35 10t10 35v134q0 25 -10 35t-35 10zM244 725h-134q-25 0 -35 -10t-10 -35v-134q0 -25 10 -35t35 -10h134q25 0 35 10t10 35v134q0 25 -10 35t-35 10zM914 99h-491q-25 0 -35 -10t-10 -35v-134q0 -25 10 -35t35 -10h491q25 0 35 10t10 35v134
q0 25 -10 35t-35 10zM244 99h-134q-25 0 -35 -10t-10 -35v-134q0 -25 10 -35t35 -10h134q25 0 35 10t10 35v134q0 25 -10 35t-35 10z" />
    <glyph glyph-name="uniE604" unicode="&#xe604;" 
d="M755 493q-49 0 -84 34.5t-35 84.5v137h-429q-30 0 -51 -21t-21 -52v-753q0 -30 21 -51t51 -21h610q30 0 51 21t21 51v570h-134zM770 12h-516v49h516v-49zM770 168h-516v49h516v-49zM770 324h-516v48h516v-48zM683 749v-137q0 -30 21 -51.5t51 -21.5h134z" />
    <glyph glyph-name="uniE605" unicode="&#xe605;" 
d="M1008 46q0 -29 -15 -51.5t-53 -22.5h-856q-38 0 -53 22.5t-15 51.5q0 41 17.5 85t49 82t82.5 63t111 25q2 -3 6.5 -8.5t23 -19.5t42.5 -24.5t68 -19.5t96 -9t95.5 8.5t68.5 20.5t42 23.5t24 20.5l6 8q60 0 111 -25t82.5 -63t49 -82t17.5 -85zM517.5 884
q-107.5 0 -184 -85.5t-76.5 -206t76.5 -205.5t184 -85t184 85t76.5 205.5t-76.5 206t-184 85.5z" />
    <glyph glyph-name="uniE606" unicode="&#xe606;" 
d="M463 223q5 -16 -1 -34.5t-19 -31.5l-91 -91q-19 -19 -46 -19t-46 19l-68 68q-19 19 -19 45.5t19 45.5l91 91q31 31 66 20l71 72q-38 37 -91.5 37t-90.5 -37l-137 -137q-38 -38 -38 -91.5t38 -91.5l114 -114q38 -37 91 -37t91 37l137 137q38 38 38 91.5t-38 91.5zM922 681
l-114 114q-38 38 -91.5 38t-91.5 -38l-137 -137q-37 -37 -37 -90.5t37 -91.5l72 71q-11 35 20 66l91 91q19 19 45.5 19t45.5 -19l68 -68q19 -19 19 -46t-19 -46l-91 -91q-13 -13 -31.5 -18.5t-34.5 -1.5l-71 -71q38 -38 91.5 -38t91.5 38l137 137q37 38 37 91t-37 91z
M363 237q14 -14 34 -14t34 14l228 228q15 14 15 34t-14.5 34t-34.5 14t-34 -14l-228 -228q-14 -14 -14 -34t14 -34z" />
    <glyph glyph-name="uniE607" unicode="&#xe607;" 
d="M930 45q0 -33 -23 -56t-56 -23h-678q-33 0 -56 23t-23 56v326h-81v-326q0 -66 47 -113t113 -47h678q66 0 113 47t47 113v326h-81v-326zM851 883h-678q-66 0 -113 -47t-47 -113v-326h81v326q0 32 23 55.5t56 23.5h678q33 0 56 -23t23 -56v-326h81v326q0 66 -47 113
t-113 47zM429 179l-100 97l-92 -150l37 -36zM865.5 701q-22.5 22 -54.5 22t-55 -22l-30 -30l109 -106l30 30q23 22 23 53t-22.5 53zM810 540l-110 106l-356 -348l109 -106zM256 76l-35 35l-54 -87zM435 178l-161 -94l-42 42l97 156zM330 269l-87 -142l33 -32l145 85z" />
    <glyph glyph-name="uniE608" unicode="&#xe608;" 
d="M456 832q-180 0 -286 -40t-106 -100v-84q0 -60 106 -100t286 -40q121 0 217.5 19t149.5 50.5t53 70.5v84q0 38 -53 70t-149.5 51t-217.5 19zM405 133q-232 9 -321 97q-20 -20 -20 -42v-112q0 -60 106 -100t286 -40q34 0 73 2q-49 35 -81 85.5t-43 109.5zM471 384h-7h-9
q-273 0 -371 98q-20 -20 -20 -42v-112q0 -55 90 -93.5t246 -45.5q1 110 71 195zM708 440q-104 0 -178 -74t-74 -178t74 -178t178 -74t178 74t74 178t-74 178t-178 74zM719 88h-26v133q0 16 2 39q-4 -14 -6 -20l-66 -152h-15l-65 151q-3 5 -6 21h-1q1 -14 1 -41v-131h-25v200
h35l59 -137q7 -16 9 -25h1q7 19 10 25l60 137h33v-200zM837 162v-74h-26v73l-64 127h30l43 -88q0 -1 5 -13q2 5 6 12l45 89h27z" />
    <glyph glyph-name="uniE609" unicode="&#xe609;" 
d="M698 569l-65 65l-325 -325q-40 -40 -40 -97t40 -97.5t97 -40.5t98 40l390 390q67 67 67 162t-67.5 162.5t-162.5 67.5t-162 -67l-409 -409q0 -1 -1 -1q-94 -94 -94 -226.5t94 -226.5t226.5 -94t226.5 94q0 1 1 1l279 279l-65 65l-279 -279l-1 -1q-67 -67 -161.5 -67
t-161.5 67t-67 161.5t67 161.5h1v1l409 409q40 40 97 40t97.5 -40.5t40.5 -97.5t-40 -97l-390 -390q-13 -13 -32.5 -13t-32.5 13.5t-13 32.5t13 32z" />
    <glyph glyph-name="uniE60A" unicode="&#xe60a;" 
d="M591 117l-48 29l50 84l-28 4q-7 1 -9 2q-25 10 -21 37q2 14 9 27q1 2 5 8t5 9q2 4 10 10q17 15 30 32q31 38 50 91q1 3 2 7q2 0 3 -1q11 -4 21 3q8 5 13 12q25 35 16 78q-2 10 -8 18q-8 10 -20 8h-4v3v54q-2 36 -12 70q-15 45 -44 74q-32 33 -82 46q-40 11 -91 9
q-37 -1 -69 -11q-86 -27 -119 -110q-15 -36 -19 -84q-1 -25 1 -59v-4h-1h-1h-1q-15 3 -23 -10q-5 -9 -7 -17q-9 -41 16 -77q3 -4 9 -9q15 -13 32 -2q2 -5 2 -6q1 -3 4 -9.5t4 -10.5q29 -62 74 -99l2 -2q0 -1 5 -8q9 -14 13 -25q4 -13 4 -22q-1 -12 -9 -21t-20 -11
q-56 -6 -109 -21q-52 -15 -89 -36q-28 -16 -45.5 -34t-25.5 -38q-1 -4 -1 -8v-13v-14v-12v-6h489l-10 16l46 30q9 6 5 16q-1 2 -4 3zM937 72q-13 25 -6 51t30 41l-35 58q-12 -8 -33 -8q-27 0 -46 19.5t-19 47.5h-67q0 -21 -9 -33q-13 -24 -40 -30.5t-51 6.5l-35 -58
q15 -9 24 -24q13 -25 6 -51t-30 -40l35 -59q11 9 32 9q28 0 46.5 -19.5t18.5 -46.5h68q0 18 9 33q12 24 39.5 30.5t51.5 -6.5l35 59q-13 3 -24 21zM793 35q-38 0 -59 33.5t-2 68.5q16 31 50 37q32 5 56.5 -16.5t24.5 -52.5q0 -28 -20.5 -49t-49.5 -21z" />
    <glyph glyph-name="uniE60B" unicode="&#xe60b;" horiz-adv-x="1025" 
d="M447 832h-384v-384h384v384zM383 512h-255v256h255v-256zM575 -64h385v384h-385v-384zM63 -64h385v384h-385v-384zM128 256h254v-256h-254v256zM575 832v-384h385v384h-385zM894 512h-255v256h255v-256z" />
    <glyph glyph-name="uniE60C" unicode="&#xe60c;" 
d="M732 -128h-567q-39 0 -66.5 27.5t-27.5 67.5v724q0 39 27.5 67t66.5 28h567q40 0 67.5 -28t27.5 -67v-724q0 -40 -27.5 -67.5t-67.5 -27.5zM165 723q-13 0 -22 -9.5t-9 -22.5v-725q0 -13 9 -22t22 -9h568q13 0 22 9t9 22v725q0 13 -9 22.5t-22 9.5h-568zM165 723z
M859 -18v63q13 0 22 9.5t9 22.5v724q0 13 -9 22.5t-22 9.5h-568q-13 0 -22 -9.5t-9 -22.5h-63q0 39 27.5 67t66.5 28h568q39 0 66.5 -28t27.5 -67v-724q0 -39 -27.5 -67t-66.5 -28zM859 -18zM194 294h227v331h-227v-331zM194 30h227v198h-227v-198zM477 30h226v330h-226
v-330zM477 625v-199h226v199h-226zM477 625z" />
    <glyph glyph-name="uniE60D" unicode="&#xe60d;" horiz-adv-x="1000" 
d="M182 372q26 6 44.5 19.5t27.5 32.5t14.5 36.5t5.5 39t-0.5 31.5t-1.5 22q-5 39 -41.5 78.5t-84.5 35.5q-69 -7 -94 -104l-6 -31q-2 -18 -1 -41t12.5 -47t26.5 -42.5t41 -27t57 -2.5zM297 148q-11 -31 -4 -53q3 -12 9.5 -21.5t13 -14.5t14 -7.5t10 -3t4.5 -0.5h57v138h-61
q-18 -5 -29 -17t-14 -21zM382.5 589q44.5 0 76 45t31.5 108.5t-31.5 108.5t-76 45t-76 -45t-31.5 -108.5t31.5 -108.5t76 -45zM640 579q54 -7 93 38t48 101q7 48 -24 95t-74 57q-40 9 -84 -40t-49 -97q-5 -39 1 -70t28.5 -55t60.5 -29zM835 200q-14 10 -36.5 29t-74.5 71
t-84 98q-35 54 -79 77t-82.5 16t-71 -28t-50.5 -52q-21 -34 -50 -65.5t-53 -51.5t-26 -22q-1 -2 -14 -11.5t-27.5 -22t-32.5 -32.5t-29 -42.5t-17.5 -53t2.5 -63.5q9 -38 26.5 -65.5t36 -40.5t36.5 -19.5t28.5 -7.5t11.5 -1q80 -7 172 13q48 10 86 8t62 -7t24 -6
q5 -1 13 -3.5t31.5 -7t46 -7t51.5 0t53 10.5t46 27t34 47q48 113 -15 193zM465 -8h-140q-27 6 -48.5 20.5t-29 24t-10.5 16.5q-19 46 -11 97q7 24 20.5 42t26 27t26.5 14.5t20 6.5t8 1h75v92l63 -1v-340zM727 -7h-162q-17 5 -30.5 13t-19.5 15.5t-10 16t-4.5 12t-0.5 4.5
v179l65 1v-161q2 -8 8.5 -13t11.5 -6l6 -1h66v180h70v-240zM956 470q0 14 -6 33t-18.5 40.5t-38 36t-58.5 14.5q-108 0 -108 -149q0 -23 1.5 -38.5t8 -37t19 -34t36.5 -21.5t58 -9q19 1 35 5.5t26.5 13.5t18.5 18t13 23t8 24.5t4 25.5t1 22v20v13z" />
    <glyph glyph-name="uniE60E" unicode="&#xe60e;" horiz-adv-x="1027" 
d="M911 72q18 -53 82 -103q13 -9 -10 -16q-47 -13 -124 17q-74 30 -137 94h-364q-53 0 -94 33q46 31 69 54h338q90 0 155 65t65 155v292q58 -6 97 -49t39 -102v-292q-2 -53 -34.5 -94t-81.5 -54v0zM666 220h-364q-61 -61 -123.5 -88t-109.5 -27q-41 0 -41 14q0 3 3 6
q60 48 82 103q-49 13 -81 54t-32 92v292q0 63 44 107t107 44h515q63 0 108 -45t45 -106v-292q0 -64 -45 -109t-108 -45v0zM276 545q-11 16 -33 16t-33 -16q-15 -11 -15 -33t15 -33q11 -16 33 -16t33 16q16 20 16 33q-5 22 -16 33v0zM443 545q-12 16 -33.5 16t-33.5 -16
q-15 -20 -15 -33q0 -22 15 -33q12 -16 33.5 -16t33.5 16q15 20 15 33q0 22 -15 33v0zM612 545q-12 16 -33.5 16t-33.5 -16q-15 -20 -15 -33q0 -22 15 -33q12 -16 33.5 -16t33.5 16q15 20 15 33q-4 22 -15 33v0zM612 545z" />
    <glyph glyph-name="uniE60F" unicode="&#xe60f;" 
d="M1010 509l-52 -51l-143 142l53 51q11 12 27.5 13.5t26.5 -9.5l94 -91q9 -10 7.5 -26.5t-13.5 -28.5v0v0zM791 576l143 -140l-342 -338q-5 -6 -12 -7q-1 0 -3 -1l-179 -55q-9 -3 -13 2q-6 5 -2 13l56 176q0 1 1 2q3 11 8 14l66 60h-217q-7 0 -12 6t-5 12q0 7 5 13t12 6
h251zM548 109l-88 88l-24 -74l37 -37zM786 521q-3 3 -9 3t-9 -3l-269 -263q-4 -4 -4 -9.5t4 -8.5q4 -4 9.5 -4t8.5 4l268 263q9 7 1 18v0v0zM189 7q-18 0 -18 13v716q-1 4 0 7t2 4t4 2t5 1h6h5h63v-24q0 -7 6 -12t14 -5q7 0 14 5t7 12v24h92v-24q0 -7 6.5 -12t14.5 -5
q7 0 13.5 5t6.5 12v24h85v-24q0 -7 6.5 -12t14.5 -5q7 0 13.5 5t6.5 12v24h85v-24q0 -7 6.5 -12t13.5 -5q8 0 14.5 5t6.5 12v24h71q15 0 15 -14v-118l52 51v67q0 28 -19 46.5t-48 18.5h-72v44q0 6 -6.5 11.5t-14.5 5.5q-7 0 -13.5 -5.5t-6.5 -11.5v-44h-85v44q0 6 -6.5 11.5
t-14.5 5.5q-7 0 -13.5 -5.5t-6.5 -11.5v-44h-85v44q0 6 -6.5 11.5t-13.5 5.5t-14 -5.5t-7 -11.5v-44h-93v44q0 6 -6 11.5t-14 5.5q-7 0 -13.5 -5.5t-6.5 -11.5v-44h-62q-37 0 -56 -18t-19 -47v-715q0 -27 21.5 -46t50.5 -19h562q29 0 48 18.5t19 46.5v247l-52 -51v-197
q0 -13 -15 -13h-563zM634 607h-339q-6 0 -10.5 -6.5t-4.5 -12.5q0 -8 4.5 -14t10.5 -6h339q7 0 11.5 6.5t4.5 13t-4.5 13t-11.5 6.5v0v0zM634 476h-339q-6 0 -10.5 -6t-4.5 -13t4.5 -13t10.5 -6h339q7 0 11.5 6.5t4.5 13t-4.5 12.5t-11.5 6v0v0zM634 476z" />
    <glyph glyph-name="uniE610" unicode="&#xe610;" 
d="M20 737zM380 666q25 0 43 -17.5t18 -42.5v-240q0 -25 -18 -42.5t-43 -17.5h-240q-25 0 -42 17.5t-17 42.5v240q0 25 17 42.5t42 17.5h240zM380 186q25 0 43 -17.5t18 -42.5v-241q0 -25 -18 -42t-43 -17h-240q-25 0 -42 17t-17 42v241q0 25 17 42.5t42 17.5h240zM862 186
q25 0 42 -17.5t17 -42.5v-241q0 -25 -17 -42t-42 -17h-241q-25 0 -42.5 17t-17.5 42v241q0 25 17.5 42.5t42.5 17.5h241zM995 560q19 -19 19 -45t-19 -44l-179 -179q-19 -19 -44.5 -19t-44.5 19l-179 179q-18 18 -18 44t18 45l179 179q19 18 44.5 18t44.5 -18z" />
    <glyph glyph-name="uniE611" unicode="&#xe611;" 
d="M256 494h512v-73h-512v73zM256 347h512v-73h-512v73zM256 201h512v-73h-512v73zM914 823h-146v36h-110v-36h-292v36h-110v-36h-146q-15 0 -26 -11t-11 -26v-841q0 -15 11 -25.5t26 -10.5h804q15 0 26 10.5t11 25.5v841q0 15 -11 26t-26 11zM256 750v-37h110v37h292v-37
h110v37h110v-110h-732v110h110zM146 -18v621h732v-621h-732z" />
    <glyph glyph-name="uniE612" unicode="&#xe612;" 
d="M734 547q-176 -8 -238 -11q-30 -1 -39.5 19t14.5 46q16 16 21 22.5t8.5 20.5t1.5 38q-4 38 -35.5 55.5t-71.5 17.5q-38 -1 -71 -20t-44 -51q-18 -54 16 -80q1 0 7 -4t8 -6l7 -6q4 -5 4.5 -8.5t0 -8t-4.5 -10t-11 -11.5q-6 -4 -29.5 -5.5t-54 0t-59.5 3t-50 3.5t-20 2
q0 -19 -1.5 -45t-3 -91t2.5 -76q3 -21 22.5 -26t36.5 16q13 16 34.5 19.5t42.5 -5.5t37.5 -32t18.5 -55q1 -26 -8.5 -46t-24.5 -29t-31.5 -12.5t-31 1.5t-20.5 16q-16 26 -46 28t-33 -29q-4 -67 28 -280q14 -4 37 -8.5t72.5 -10.5t74.5 -2q20 3 26 29t-12 42
q-7 6 -10.5 20.5t-0.5 31.5t12.5 32t33 23.5t56.5 5.5q26 -3 43 -13.5t22.5 -23.5t5.5 -27t-5 -25t-13 -15q-11 -8 -13.5 -22t7.5 -28.5t32 -20.5q21 -4 51.5 -3.5t67.5 5t67.5 10t52.5 9.5l21 4q-3 18 -7 45.5t-9 84t-2 79.5q4 18 16 25.5t25.5 4.5t24.5 -9t14 -10
q26 -33 63 -34.5t65.5 31t28.5 85.5q0 75 -38.5 106t-78.5 22.5t-48 -30.5q-7 -21 -24 -27t-31.5 1t-17.5 20q-4 17 -4.5 47.5t1.5 62t4.5 59.5t4.5 46.5t2 17.5z" />
    <glyph glyph-name="uniE613" unicode="&#xe613;" 
d="M214 -26h49q11 0 19 8t8 19v281h-103v-281q0 -11 8 -19t19 -8zM536 794h-48q-11 0 -19 -8t-8 -19v-417h102v417q0 11 -7.5 19t-19.5 8zM263 794h-49q-11 0 -19 -8t-8 -19v-246h103v246q0 11 -8 19t-19 8zM810 794h-48q-12 0 -20 -8t-8 -19v-144h103v144q0 11 -8 19t-19 8
zM871 589h-171q-14 0 -24 -10t-10 -24v-103q0 -14 10 -24t24 -10h171q14 0 24.5 10t10.5 24v103q0 14 -10.5 24t-24.5 10zM761 -26h49q11 0 19 8t8 19v383h-103v-383q0 -11 8 -19t19 -8zM598 316h-172q-14 0 -24 -10t-10 -24v-103q0 -14 10 -24t24 -10h172q14 0 24 10t10 24
v103q0 14 -10 24t-24 10zM488 -26h48q11 0 19 8t8 19v110h-102v-110q0 -11 7.5 -19t19.5 -8zM324 486h-171q-14 0 -24.5 -10t-10.5 -24v-102q0 -14 10.5 -24t24.5 -10h171q14 0 24 10t10 24v102q0 14 -10 24t-24 10z" />
    <glyph glyph-name="uniE614" unicode="&#xe614;" 
d="M595 -69h-428q-49 0 -84 35t-35 85v524q0 49 35 84t84 35h428q43 0 76 -27t41 -68q25 7 47 9q-12 58 -58 95.5t-106 37.5h-252q8 41 41 68.5t75 27.5h232q49 0 84 -35t35 -85v-107q23 -1 47 -6v113q0 69 -48.5 118t-117.5 49h-232q-62 0 -108.5 -41t-55.5 -102h-128
q-69 0 -118 -48.5t-49 -117.5v-524q0 -69 49 -118t118 -49h428q54 0 96.5 31t60.5 80q-23 3 -46 10q-14 -33 -44 -53.5t-67 -20.5zM143 569h317v-36h-317v36zM143 410h244v-36h-244v36zM143 251h244v-36h-244v36zM143 92h317v-36h-317v36zM973 314l43 16q11 4 7 15l-36 98
q-4 11 -15 7l-44 -16q-11 -4 -16 2q-3 4 -5.5 11.5t-0.5 11.5l19 42q5 11 -5 15l-96 44q-10 5 -15 -5l-20 -43q-5 -10 -13 -10q-4 1 -11.5 4.5t-8.5 7.5l-16 43q-4 11 -15 7l-99 -36q-11 -4 -6 -15l16 -44q4 -11 -3 -16q-3 -3 -10.5 -5.5t-11.5 -0.5l-42 19q-11 5 -16 -6
l-43 -95q-5 -10 5 -15l42 -20q11 -5 10 -13q0 -4 -3.5 -11.5t-7.5 -8.5l-44 -16q-10 -4 -6 -15l36 -99q4 -11 15 -7l43 17q11 4 17 -3q3 -3 5.5 -10.5t0.5 -11.5l-19 -42q-5 -11 5 -16l96 -44q10 -4 15 6l20 42q4 11 12 10q5 0 12 -3.5t9 -7.5l16 -43q4 -11 15 -7l98 36
q11 4 7 15l-16 43q-4 11 2 17q4 3 11.5 5.5t11.5 0.5l42 -19q11 -5 15 5l44 96q5 10 -5 15l-42 20q-4 1 -7 8.5t-3 12.5q0 8 11 12zM804.5 196q-45.5 -17 -89 3.5t-60.5 65.5t3.5 89t65.5 60.5t89 -3.5t61 -65.5t-3.5 -89t-66 -60.5z" />
    <glyph glyph-name="uniE615" unicode="&#xe615;" 
d="M960 672q0 67 -46.5 113.5t-113.5 46.5t-113.5 -46.5t-46.5 -113.5q0 -57 37 -100.5t91 -53.5v-70h-147q-15 29 -45 46.5t-64 17.5t-64 -17.5t-45 -46.5h-147h-32h-32v-32v-64v-102q-54 -10 -91 -53.5t-37 -100.5q0 -67 46.5 -113.5t113.5 -46.5t113.5 46.5t46.5 113.5
q0 57 -37 100.5t-91 53.5v70h147q15 -29 45 -46.5t64 -17.5t64 17.5t45 46.5h147h32h32v32v64v102q54 10 91 53.5t37 100.5z" />
    <glyph glyph-name="uniE616" unicode="&#xe616;" 
d="M118 778v39q0 17 11.5 28.5t28.5 11.5h787q-10 17 -33 28t-46 11h-708q-33 0 -56 -23t-23 -56v-866q0 -33 23 -56t56 -23h39v866h-39q-17 0 -28.5 12t-11.5 28zM512 738h-276v-866h630q33 0 56 23t23 56v787h-157h-276zM788 305h-394v40h394v-40zM788 423h-394v40h394
v-40zM788 542h-394v39h394v-39z" />
    <glyph glyph-name="uniE617" unicode="&#xe617;" 
d="M512 -118q-103 0 -196 40t-160.5 107.5t-107.5 160.5t-40 195.5t40 196t107.5 160.5t160.5 107t195.5 40t196 -40t161 -107t107 -160.5t39.5 -196t-39.5 -195.5t-107 -160.5t-161 -107.5t-195.5 -40zM185 426q-17 0 -29 -11.5t-12 -28.5t12 -29t29 -12t29 12t12 29
t-12 28.5t-29 11.5zM310 645q-12 12 -29 12t-29 -12t-12 -28.5t12 -28.5t29 -12t29 12t12 28.5t-12 28.5zM512 753q-17 0 -29 -12t-12 -29t12 -29t29 -12t29 12t12 29t-12 29t-29 12zM551 169l-26 353q0 9 -13.5 9t-13.5 -9l-25 -353q-29 -20 -29 -56q0 -28 20 -48t48 -20
t48 20t20 48q0 36 -29 56zM772 645q-12 12 -29 12t-29 -12t-12 -28.5t12 -28.5t29 -12t29 12t12 28.5t-12 28.5zM838 426q-17 0 -28.5 -11.5t-11.5 -28.5t11.5 -29t28.5 -12t29 12t12 29t-12 28.5t-29 11.5zM838 426z" />
    <glyph glyph-name="uniE618" unicode="&#xe618;" 
d="M384 201v114q0 23 19 40t45 17v57q-53 0 -90.5 -33.5t-37.5 -80.5v-86q0 -12 -9.5 -20t-22.5 -8h-32v-58h32q13 0 22.5 -8t9.5 -20v-86q0 -47 37.5 -80.5t90.5 -33.5v57q-26 0 -45 17t-19 40v115q0 11 -9.5 19.5t-22.5 8.5q13 0 22.5 8.5t9.5 20.5zM640 143v-114
q0 -23 -19 -40t-45 -17v-57q53 0 90.5 33.5t37.5 80.5v86q0 12 9.5 20t22.5 8h32v58h-32q-13 0 -22.5 8t-9.5 20v86q0 47 -37.5 80.5t-90.5 33.5v-57q26 0 45 -17t19 -40v-115q0 -11 9.5 -19.5t22.5 -8.5q-13 0 -22.5 -8.5t-9.5 -20.5zM903 613l-142 142q-24 24 -64 40.5
t-73 16.5h-480q-33 0 -56.5 -23.5t-23.5 -56.5v-864q0 -33 23.5 -56.5t56.5 -23.5h736q33 0 56.5 23.5t23.5 56.5v608q0 33 -16.5 73t-40.5 64zM858 567q5 -4 9 -11h-163v163q7 -4 11 -9zM896 -132q0 -7 -4.5 -11.5t-11.5 -4.5h-736q-7 0 -11.5 4.5t-4.5 11.5v864
q0 7 4.5 11.5t11.5 4.5h480q7 0 16 -2v-254h254q2 -9 2 -16v-608z" />
    <glyph glyph-name="uniE619" unicode="&#xe619;" 
d="M736 704h160l-192 192v-160q0 -13 9.5 -22.5t22.5 -9.5zM704 672q-13 0 -22.5 9.5t-9.5 22.5v192h-512q-13 0 -22.5 -9.5t-9.5 -22.5v-960q0 -13 9.5 -22.5t22.5 -9.5h704q13 0 22.5 9.5t9.5 22.5v768h-192zM296 686h240q10 0 17 -7t7 -17t-7 -17t-17 -7h-240
q-10 0 -17 7t-7 17t7 17t17 7zM728 82h-432q-10 0 -17 7t-7 17t7 17t17 7h432q10 0 17 -7t7 -17t-7 -17t-17 -7zM728 360h-432q-10 0 -17 7t-7 17t7 17t17 7h432q10 0 17 -7t7 -17t-7 -17t-17 -7z" />
    <glyph glyph-name="uniE61A" unicode="&#xe61a;" 
d="M888 607v2q0 5 -2 9l-2 4h-1q0 1 -1 2t-1 1.5t-0.5 0.5t-0.5 1h-1l-174 171q-7 8 -18 9h-3l-1 1h-522q-13 0 -22.5 -9.5t-9.5 -22.5v-950q0 -13 9.5 -22.5t22.5 -9.5h696q13 0 22.5 9.5t9.5 22.5v779q0 1 -1 2zM715 700l64 -63h-64v63zM825 -142h-632v886h458v-139
q0 -13 9.5 -22.5t22.5 -9.5h142v-715zM262 129l38 28q21 -38 57 -38q27 0 39.5 16.5t12.5 53.5v238h55v-243q0 -50 -25 -81.5t-76 -31.5q-69 0 -101 58zM491 122l32 38q42 -41 93 -41q32 0 49.5 13.5t17.5 35.5q0 12 -4 20.5t-13.5 15t-16 10t-23.5 10.5l-48 21
q-71 30 -71 92q0 41 32.5 68.5t82.5 27.5q62 0 106 -44l-29 -35q-36 31 -77 31q-27 0 -43 -12t-16 -33q0 -14 9 -24.5t19 -15.5t28 -12l48 -21q35 -14 53.5 -36t18.5 -58q0 -44 -34 -73t-89 -29q-74 0 -125 51z" />
    <glyph glyph-name="uniE61B" unicode="&#xe61b;" 
d="M888 607v2q0 5 -2 9l-2 4h-1q0 1 -1 2t-1 1.5t-0.5 0.5t-0.5 1h-1l-174 171q-7 8 -18 9h-3l-1 1h-522q-13 0 -22.5 -9.5t-9.5 -22.5v-950q0 -13 9.5 -22.5t22.5 -9.5h696q13 0 22.5 9.5t9.5 22.5v779q0 1 -1 2zM715 700l64 -63h-64v63zM825 -142h-632v886h458v-139
q0 -13 9.5 -22.5t22.5 -9.5h142v-715zM767 255l-129 -129q-9 -9 -18 0l-18 19q-10 9 0 18l101 101l-101 102q-10 9 0 18l18 18q9 10 18 0l129 -129q10 -9 0 -18zM464 49l-24 6q-11 4 -9 15l105 402q3 12 16 8l25 -7q12 -3 9 -14l-108 -403q-2 -11 -14 -7zM422 145l-18 -19
q-9 -9 -18 0l-129 129q-10 9 0 18l129 129q9 10 18 0l18 -18q10 -9 0 -18l-101 -102l101 -101q10 -9 0 -18z" />
    <glyph glyph-name="uniE61C" unicode="&#xe61c;" horiz-adv-x="1025" 
d="M512 -128q-139 0 -257 68.5t-186.5 186.5t-68.5 257t68.5 257t186.5 186.5t257 68.5q104 0 199 -40.5t163.5 -109t109 -163.5t40.5 -199t-40.5 -199t-109 -163.5t-163.5 -109t-199 -40.5zM723 535q13 12 13 30t-12.5 30.5t-30.5 12.5t-30 -13l-151 -151l-151 151
q-12 13 -30 13t-30.5 -12.5t-12.5 -30.5t13 -30l151 -151l-151 -151q-13 -12 -13 -30t12.5 -30.5t30.5 -12.5t30 13l151 151l151 -151q12 -13 30 -13t30.5 12.5t12.5 30.5t-13 30l-151 151z" />
    <glyph glyph-name="uniE61D" unicode="&#xe61d;" 
d="M512 896q-139 0 -257 -68.5t-186.5 -186.5t-68.5 -257t68.5 -257t186.5 -186.5t257 -68.5t257 68.5t186.5 186.5t68.5 257t-68.5 257t-186.5 186.5t-257 68.5zM806 517l-331 -331q-12 -12 -28 -13.5t-29 5.5q-5 3 -9 8l-191 190q-13 14 -13 33t13.5 32.5t32.5 13.5
t33 -13l158 -158l298 298q14 14 33 14t32.5 -13.5t13.5 -33t-13 -32.5z" />
    <glyph glyph-name="uniE61E" unicode="&#xe61e;" 
d="M292 489h243v-32h-243v32zM292 343h243v-32h-243v32zM292 197h440v-32h-440v32zM292 51h440v-32h-440v32zM905 528q0 1 -1 2q-1 4 -3 7l-265 265q-3 3 -8 4h-2q-1 1 -2 1h-390q-48 0 -81.5 -34t-33.5 -81v-784q0 -47 33.5 -80.5t81.5 -33.5h556q48 0 81.5 33.5t33.5 80.5
v618v1v1zM839 542h-121q-33 0 -56.5 23t-23.5 56v122zM781 -158h-538q-33 0 -56.5 23.5t-23.5 56.5v756q0 33 23.5 56.5t56.5 23.5h362v-145q0 -45 32.5 -77.5t78.5 -32.5h145v-581q0 -33 -23.5 -56.5t-56.5 -23.5z" />
    <glyph glyph-name="uniE61F" unicode="&#xe61f;" horiz-adv-x="1261" 
d="M236 502l-236 -630h1024l236 630h-1024zM1024 581v157h-512l-158 158h-354v-1024l158 709h866zM1024 581z" />
    <glyph glyph-name="uniE620" unicode="&#xe620;" 
d="M122 896v-994l398 169l397 -169v994h-795zM299 670q37 -2 62 -2h62q0 20 -2 48h41q-2 -27 -2 -48h119q0 20 -2 48h42q-2 -27 -2 -48h63q26 0 68 2v-37q-42 2 -68 2h-63q0 -10 2 -39h-42q2 25 2 39h-119q0 -14 2 -39h-41q2 27 2 39h-62q-22 0 -62 -2v37zM384 242
q2 35 2 74v107q-39 -41 -79 -70q-12 19 -30 37q43 23 83 60t73 80h-64q-26 0 -68 -2v37q37 -2 62 -2h91q14 25 24 52q23 -13 50 -19q-19 -14 -29 -33h163q33 0 74 2v-37q-42 2 -74 2h-181q-25 -31 -56 -68v-146q0 -39 2 -74h-43zM750 363q-35 2 -74 2h-51v-78
q0 -27 -19.5 -35t-69.5 -12q0 16 -18 43q37 -2 51 -2q17 0 17 23v61h-79q-26 0 -57 -2v37q30 -2 59 -2h75q0 12 -2 27q28 13 53 31h-97q-30 0 -66 -2v37q35 -2 70 -2h176v-33q-23 -4 -45 -15.5t-48 -27.5v-15h51q38 0 74 2v-37z" />
    <glyph glyph-name="uniE621" unicode="&#xe621;" 
d="M104 645l408 -446l408 446q11 11 27.5 11t28 -11.5t11.5 -28t-11 -28.5l-434 -474q-12 -13 -30 -12q-18 -1 -30 12l-434 474q-11 12 -11 28.5t11.5 28t28 11.5t27.5 -11z" />
    <glyph glyph-name="uniE622" unicode="&#xe622;" 
d="M1024 724l-512 -680l-512 680h1024z" />
    <glyph glyph-name="uniE623" unicode="&#xe623;" 
d="M287 760q-12 12 -13 29t10.5 30t29 14t30.5 -11l446 -406q13 -12 13.5 -29.5t-10.5 -30.5q-2 -1 -3 -3v0l-446 -406q-13 -12 -30.5 -11t-29 14t-10.5 30.5t13 28.5l412 376z" />
    <glyph glyph-name="uniE624" unicode="&#xe624;" 
d="M832 832h-640q-53 0 -90.5 -37.5t-37.5 -90.5v-640q0 -53 37.5 -90.5t90.5 -37.5h640q53 0 90.5 37.5t37.5 90.5v640q0 53 -37.5 90.5t-90.5 37.5zM832 320h-256v-256h-128v256h-256v128h256v256h128v-256h256v-128z" />
    <glyph glyph-name="uniE625" unicode="&#xe625;" 
d="M832 832h-640q-53 0 -90.5 -37.5t-37.5 -90.5v-640q0 -53 37.5 -90.5t90.5 -37.5h640q53 0 90.5 37.5t37.5 90.5v640q0 53 -37.5 90.5t-90.5 37.5zM832 320h-640v128h640v-128z" />
    <glyph glyph-name="uniE626" unicode="&#xe626;" 
d="M768 768h-576q-53 0 -90.5 -37.5t-37.5 -90.5v-576q0 -53 37.5 -90.5t90.5 -37.5h576q53 0 90.5 37.5t37.5 90.5v576q0 53 -37.5 90.5t-90.5 37.5zM832 64q0 -29 -17.5 -46.5t-46.5 -17.5h-576q-29 0 -46.5 17.5t-17.5 46.5v576q0 29 17.5 46.5t46.5 17.5h576
q29 0 46.5 -17.5t17.5 -46.5v-576zM288 320q-14 0 -23 9t-9 23t9 23t23 9h384q14 0 23 -9t9 -23t-9 -23t-23 -9h-384z" />
    <glyph glyph-name="uniE627" unicode="&#xe627;" 
d="M711 833h-398q-103 0 -176 -73t-73 -176v-398q0 -103 73 -175.5t176 -72.5h398q103 0 175.5 72.5t72.5 175.5v398q0 103 -72.5 176t-175.5 73zM907 186q0 -82 -58 -140.5t-141 -58.5h-397q-82 0 -140 58.5t-58 140.5v398q0 82 58 140.5t140 58.5h397q83 0 141 -58.5
t58 -140.5v-398zM708 435h-397q-24 0 -36.5 -14t-12.5 -36q0 -21 13 -35.5t36 -14.5h397q21 0 35.5 14.5t14.5 35.5q0 22 -13 36t-37 14zM460 584v-149v-99v-149q0 -25 14 -37.5t36 -12.5q21 0 35.5 13t14.5 37v149v99v149q0 21 -14.5 35t-35.5 14q-22 0 -36 -12.5
t-14 -36.5zM460 584z" />
    <glyph glyph-name="uniE628" unicode="&#xe628;" 
d="M145 896v-1023l733 531z" />
    <glyph glyph-name="uniE629" unicode="&#xe629;" 
d="M906 45q19 -53 76 -95q-1 -5 -15.5 -11t-41 -7.5t-59 4.5t-75 29.5t-83.5 62.5h-353q-27 0 -55 7.5t-42 19.5q49 20 78 51h333q235 0 235 196v372q56 -5 86.5 -42t30.5 -95v-351q-2 -50 -34.5 -89t-80.5 -52zM708 185h-392q-66 -64 -120 -91t-115 -27q-14 0 -27 6t-17 15
t5 18q30 21 44.5 39t24.5 41q-45 3 -76.5 36.5t-31.5 79.5v31v1v372v1v26q0 48 34.5 82.5t83.5 34.5h31h1h510h1h2h42q48 0 82.5 -34.5t34.5 -82.5v-431q0 -49 -34.5 -83t-82.5 -34zM199 576q-24 0 -41.5 -17t-17.5 -41.5t17.5 -41.5t41.5 -17t41.5 17t17.5 41.5t-17.5 41.5
t-41.5 17zM414 576q-24 0 -41.5 -17t-17.5 -41.5t17.5 -41.5t42 -17t41.5 17t17 41.5t-17 41.5t-42 17zM630 576q-25 0 -42 -17t-17 -41.5t17 -41.5t41.5 -17t41.5 17t17 41.5t-17 41.5t-41 17z" />
    <glyph glyph-name="uniE62A" unicode="&#xe62a;" 
d="M994 299q53 -62 1 -120l-371 -373q-12 -9 -26 -13.5t-28.5 -3t-27 6t-20.5 13.5q-134 134 -240 241l-88 90q-45 43 -79 77q-35 36 -56 57l-22 23q-3 2 -8.5 10t-11.5 20.5t-10.5 28t-4.5 33.5v21v42q1 26 2 56v61q1 73 3 161q2 15 5 29.5t15 27.5q12 12 27 16t27 4h364
q3 1 17 0.5t18 -2.5q7 -3 16 -9t15 -12zM177 563q31 0 52.5 21.5t21.5 52.5t-21.5 52.5t-52.5 21.5t-53.5 -21.5t-22.5 -52.5t22.5 -52.5t53.5 -21.5z" />
    <glyph glyph-name="uniE62B" unicode="&#xe62b;" 
d="M559 -79h-4q-9 2 -16 8.5t-8 16.5l-56 402l-401 56q-10 1 -17 8t-8 17q-3 21 17 30l866 385q19 8 33 -6t6 -32l-385 -868q-8 -17 -27 -17zM182 447l322 -45q10 -2 16.5 -8.5t8.5 -16.5l45 -323l313 707z" />
    <glyph glyph-name="uniE62C" unicode="&#xe62c;" 
d="M1021 161q3 -14 -1 -32q-3 -18 -11 -38q-7 -19 -18 -35q-11 -15 -25 -22q-13 -6 -23 -6t-22 4q-11 3 -27 6t-34 1q-17 -1 -34 -6.5t-29 -18.5q-26 -28 -30 -63q-5 -36 10 -67q10 -22 -4 -44q-6 -9 -21 -18q-14 -10 -31 -17q-16 -8 -36 -13q-18 -4 -33 -4q-9 0 -18 8
q-9 7 -12 16h-2q-12 34 -41 59t-67 25t-68 -25t-42 -58q-6 -13 -17 -19q-10 -6 -24 -6q-15 0 -34 6q-19 5 -38.5 13.5t-35 19t-22.5 22.5q-6 7 -6.5 17.5t8.5 29.5q12 25 9 57.5t-28 60.5q-15 16 -37 21t-42 4q-23 -1 -47 -9q-15 -4 -31 2q-12 5 -23 21q-9 15 -18 35
q-8 19 -12.5 39.5t-2.5 33.5q3 24 22 31q33 13 59.5 43t26.5 68t-26.5 66.5t-59.5 42.5q-10 3 -16.5 15.5t-6.5 25.5q0 15 4 32q5 17 12 34q7 16 16 31q10 13 21 20q9 5 17 4t18 -4q33 -13 69 -8q35 5 63 31q13 13 19 33t8 38q1 18 0 34q-2 14 -3 22q-2 6 -4 15t2 15
q6 16 23 27q18 12 37 20q19 7 38 11t30 4q14 0 22.5 -9.5t11.5 -19.5q12 -29 39.5 -51.5t64.5 -22.5q39 0 68.5 21.5t41.5 53.5q5 9 14 19q9 9 19 9q16 0 34 -4.5t35 -12.5q18 -7 33 -19t23 -27q6 -9 4 -19q-3 -11 -5 -15q-14 -32 -8.5 -67t31.5 -62q27 -26 65.5 -28.5
t71.5 12.5q8 6 20.5 4.5t21.5 -9.5q17 -16 29 -47q13 -31 17 -64q3 -18 -6 -29q-8 -10 -17 -13q-34 -12 -58 -43q-24 -30 -24 -68t20 -66q21 -28 53 -40q8 -4 14 -9q12 -10 16 -25v0zM511 62q49 0 93 18.5t76 51.5q33 33 51 77q19 43 19 92.5t-19 93.5q-18 43 -51 75
q-32 33 -76 52q-44 18 -93.5 18t-93 -18.5t-75.5 -51.5q-32 -32 -51 -75.5t-19 -92.5q0 -50 19 -93t51 -77q32 -33 75.5 -51.5t93.5 -18.5v0zM511 62z" />
    <glyph glyph-name="uniE62D" unicode="&#xe62d;" 
d="M714 388zM699 317zM406 763q113 0 193 -80t80 -193q0 -47 -16 -92l-9 -24l19 -18l188 -189q27 -27 27 -66t-27 -66.5t-66 -27.5t-67 28l-188 188l-18 18l-25 -8q-44 -16 -91 -16q-114 0 -194 80t-80 193q0 48 16 93l150 -150l29 -28l29 28l106 106l29 29l-29 29l-150 150
q45 16 94 16zM406 804q-66 0 -125 -25l-19 -9q-3 -1 -5 -3q-11 -11 0 -23l176 -176l-106 -106l-172 173h-1q-6 6 -13.5 6t-13.5 -6q-2 -3 -4 -7v0l-6 -13q-26 -60 -26 -125q0 -130 92.5 -222t222.5 -92q54 0 105 18l188 -188q40 -40 96 -40t95 39.5t39 95.5t-39 95l-188 188
q18 52 18 106q0 130 -92 222t-222 92zM827 79z" />
    <glyph glyph-name="uniE62E" unicode="&#xe62e;" 
d="M480 516h64v-549h-64v549zM329 516h64v-549h-64v549zM631 516h64v-549h-64v549zM896 641h-172v41q0 23 -18.5 39t-45.5 16h-296q-27 0 -45.5 -16t-18.5 -39v-41h-177v-64h67v-675q0 -25 19 -43.5t45 -18.5h516q26 0 45 18.5t19 43.5v675h62v64zM364 673h296v-32h-296v32z
M771 -96h-1l-516 -2v675h516z" />
    <glyph glyph-name="uniE62F" unicode="&#xe62f;" 
d="M512 748q-122 0 -225 -60t-163 -163t-60 -225t60 -225t163 -163t225 -60t225 60t163 163t60 225t-60 225t-163 163t-225 60zM736 151l-75 -75l-149 149l-149 -149l-75 75l149 149l-149 149l75 75l149 -149l149 149l75 -75l-149 -149zM736 151z" />
    <glyph glyph-name="uniE630" unicode="&#xe630;" 
d="M557 287l266 264q9 9 9 22t-9.5 22.5t-22.5 9.5t-23 -9l-265 -264l-263 264q-9 9 -22.5 9t-23 -9t-9.5 -22.5t10 -22.5l263 -264l-265 -264q-10 -9 -10 -22.5t9.5 -22.5t22.5 -9t23 9l265 264l265 -267q10 -9 23 -9t22.5 9.5t9.5 22.5t-9 23z" />
    <glyph glyph-name="uniE631" unicode="&#xe631;" 
d="M960 448l-448 -512l-448 512h256v384h384v-384h32h224z" />
    <glyph glyph-name="uniE632" unicode="&#xe632;" 
d="M960 320l-448 512l-448 -512h256v-384h384v384h32h224z" />
    <glyph glyph-name="uniE633" unicode="&#xe633;" 
d="M324 135q-81 49 -128.5 132t-47.5 181q0 99 48.5 182.5t132.5 132.5t183 49t183 -49t132.5 -132.5t48.5 -182.5q0 -98 -47.5 -181t-128.5 -132q-9 -48 -41 -87h-294q-32 39 -41 87v0zM772 413q0 116 -77 197t-183 81q-35 0 -35 -35q0 -6 9.5 -12t25.5 -6q85 0 146.5 -65
t61.5 -160q0 -6 9.5 -12t25.5 -6q4 0 10.5 7t6.5 11zM356 -38q0 14 10 24t24 10h244q14 0 24 -10t10 -24.5t-10 -24.5t-24 -10h-244q-14 0 -24 10t-10 25zM652 -125q-20 -39 -57.5 -63t-82.5 -24t-82.5 24t-57.5 63h280v0z" />
    <glyph glyph-name="uniE634" unicode="&#xe634;" 
d="M511.5 748q-91.5 0 -174 -35.5t-142.5 -95.5t-95.5 -143t-35.5 -174t35.5 -174t95.5 -143t142.5 -95.5t174 -35.5t174.5 35.5t142.5 95.5t95 143t35.5 174t-35.5 174t-95 143t-142.5 95.5t-174.5 35.5zM510 -19q-27 0 -45.5 19t-18.5 46t18.5 45.5t45.5 18.5t46 -18.5
t19 -45.5t-19 -46t-46 -19zM595 462v-1v0v-1q-55 -254 -55 -255q-6 -30 -30 -30q-22 0 -30 32q-2 9 -15.5 71t-25.5 119t-12 58v0v1v0v1h-1v1v0v1v0v1v0v1v0v1q-2 9 -2 17q0 36 25 61.5t61 25.5t61.5 -25.5t25.5 -61.5q0 -8 -2 -17z" />
    <glyph glyph-name="uniE635" unicode="&#xe635;" horiz-adv-x="1025" 
d="M512 -212q-104 0 -199 40.5t-163.5 109t-109 163.5t-40.5 199t40.5 199t109 163.5t163.5 109t199 40.5t199 -40.5t163.5 -109t109 -163.5t40.5 -199t-40.5 -199t-109 -163.5t-163.5 -109t-199 -40.5zM512 765q-95 0 -181 -36.5t-148.5 -99t-99 -148.5t-36.5 -181
t36.5 -181t99 -148.5t148.5 -99.5t181 -37t181 37t148.5 99.5t99.5 148.5t37 181t-37 181t-99.5 148.5t-148.5 99t-181 36.5zM512.5 -26q-38.5 0 -66 27t-27.5 65.5t27.5 66t66 27.5t65.5 -27.5t27 -66t-27 -65.5t-65.5 -27zM512 206q-17 0 -31.5 10.5t-14.5 36.5l-47 326
q0 29 9 37.5t38 8.5h93q29 0 37.5 -8.5t8.5 -37.5l-46 -326q0 -47 -47 -47z" />
    <glyph glyph-name="uniE636" unicode="&#xe636;" 
d="M568 303h-42v-22h50v15q0 7 -8 7zM443 296v-15h50v22h-43q-7 0 -7 -7zM443 236q0 -7 7 -7h43v23h-50v-16zM526 229h43q7 0 7 6v17h-50v-23zM929 558h-838q-24 0 -41 -17t-17 -41v-406q0 -24 17 -41t41 -17h838q24 0 41 17t17 41v406q0 24 -17 41t-41 17zM768.5 381
q4.5 5 12.5 5h53q-3 4 -4 5.5t-6 6t-7.5 8t-2.5 8t5.5 10t12.5 4.5q10 -1 22.5 -14.5t13.5 -19.5q0 -4 -3 -8h44q7 0 11.5 -4.5t4.5 -9.5t-4.5 -10t-11.5 -5h-55q2 -3 2 -5.5t-3.5 -9t-30.5 -29.5q13 0 43 5q3 4 8.5 13t8 11t8.5 2.5t11.5 -4t6 -10.5t-2.5 -12
q-4 -6 -28.5 -35t-57 -48t-42.5 -19t-13.5 4.5t-4 10t3.5 9.5q2 2 5 4t24 11t48 34q-19 -4 -43 -5q-26 -2 -24 18q0 5 2.5 8t18 12t28.5 35h-41q-7 0 -11.5 3.5t-5 9.5t4 11zM95 369q2 3 15.5 12t20 15.5t13.5 15t14.5 15.5t16 -0.5t8.5 -14.5q-1 -9 -15 -23l-20 -19
q-19 -18 -27.5 -21t-12.5 -3q-5 -1 -10 2.5t-5 10t2 10.5zM167 180q0 -5 -4 -11t-13 -6q-9 1 -12.5 6.5t-3.5 10.5v102q-16 -18 -29 -16q-6 1 -10.5 5.5t-4.5 11t5 11.5q2 3 13 10.5t23 19.5t18 23.5t9.5 15.5t11.5 4t12.5 -5t5 -10t-3.5 -13q-3 -5 -17 -21v-138zM250 204
q-1 -5 -5.5 -8.5t-10.5 -2.5q-6 0 -8.5 3t-4.5 7.5t-5 9t-6.5 10.5t-3 10.5t5 8.5t11.5 4q5 -1 9.5 -5t10 -14t7 -14t0.5 -9zM344.5 252.5q-4.5 -3.5 -9.5 -3.5h-17v-58q0 -6 -3.5 -16.5t-36.5 -10.5q-23 0 -23 19q0 7 3.5 10t6.5 3q16 -1 18.5 2t2.5 11v40h-90
q-6 0 -10.5 4t-4.5 10t4.5 11t10.5 5h90v7q0 5 3.5 9.5t11.5 4.5t12.5 -4.5t4.5 -9.5v-7h17q7 0 10.5 -5t3.5 -11.5t-4.5 -10zM346.5 309.5q-4.5 -4.5 -10.5 -4.5h-139q-5 0 -10.5 3t-5.5 10.5t5 11.5t11 4h51v28h-40q-5 0 -10 3.5t-5 10t4.5 10.5t10.5 4h40v27q0 5 3.5 10
t12.5 5.5t12.5 -5t3.5 -10.5v-27h41q5 0 9.5 -3t5 -10.5t-4.5 -11t-10 -3.5h-41v-28h56q4 0 9.5 -3.5t5.5 -10t-4.5 -11zM609 234q0 -20 -9.5 -27.5t-30.5 -6.5h-43v-24q0 -5 -5 -9.5t-12 -3.5q-5 0 -10.5 3.5t-5.5 9.5v24h-45q-39 -1 -39 34v65q0 4 1.5 12.5t9.5 15t27 6.5
h46v13q0 4 4.5 8.5t13.5 4.5q7 -1 11 -5t4 -8v-13h43q23 0 31.5 -8t8.5 -27v-64zM633 351q0 -6 -3.5 -9t-12 -3.5t-13.5 3t-5 8.5v8q0 4 -1.5 5.5t-8.5 1.5h-160q-6 0 -7 -1t-1.5 -2.5t-0.5 -2.5v-6q0 -4 -3.5 -8.5t-13.5 -4.5q-6 0 -11 3.5t-5 9.5v9q0 17 9.5 24.5
t30.5 7.5h69q-3 5 -6 8.5t-4 6.5t-1 8q2 10 12 12q10 3 22.5 -8.5t11.5 -19.5q-1 -3 -5 -7h69q19 0 26.5 -6t9.5 -12.5t2 -12.5v-12zM745.5 273q-2.5 8 -8.5 18v-111q0 -7 -4.5 -11.5t-12.5 -4.5q-7 0 -11 4.5t-4 11.5v88l-5 -9q-1 -3 -5.5 -8.5t-8.5 -8.5t-10.5 -3t-10 4.5
t-3.5 10t1 8.5t11 14.5t17.5 28.5t12.5 37h-23q-5 0 -10 4.5t-4 12.5q1 6 5 10t9 4h24v36q0 7 3.5 11.5t11.5 5t12.5 -4t4.5 -12.5v-36h8q5 0 9.5 -3.5t5 -11t-4.5 -12t-10 -4.5h-8v-32q4 6 11 7q6 0 11.5 -6t11 -20t5.5 -19t-3 -10.5t-9 -6t-9 2.5q-4 2 -5.5 4.5t-4 10.5z
M921.5 169q-5.5 -5 -12.5 -4q-5 0 -8.5 3t-12 13.5t-28.5 27.5q-23 -16 -40.5 -26.5t-37 -17.5t-25.5 0t-5 14q0 8 5.5 10.5t27.5 10.5t41.5 23t34 28.5t22 23t11.5 13t10.5 3.5t11.5 -4.5t5 -11.5q-1 -14 -37 -45q33 -28 37 -35t5 -14t-4.5 -12z" />
    <glyph glyph-name="uniE637" unicode="&#xe637;" 
d="M977 557h-406l-42 -132h-52l-44 132h-386v-346h383l47 130h52l42 -130h406v346zM371 288h-224v190h226l15 -57h-61v-76h61zM876 288h-242l-14 57h70v77h-70l14 56h242v-190z" />
    <glyph glyph-name="uniE638" unicode="&#xe638;" 
d="M1024 800h-1024v-1024h1024v1024zM419 55l326 396l209 -326v-279h-884l279 279zM279 381q-58 0 -98.5 41t-40.5 99t40.5 98.5t98.5 40.5t99 -40.5t41 -98.5t-41 -99t-99 -41z" />
    <glyph glyph-name="uniE639" unicode="&#xe639;" 
d="M833 0h-32q0 -50 -39 -89t-90 -39h-481q-51 0 -89.5 39t-38.5 89v640q0 50 36.5 88.5t86.5 38.5l37 1q0 50 39 89t90 39h385l224 -257v-63v-448q0 -50 -38.5 -89t-89.5 -39zM224 135v573l-36 -5q-25 0 -43 -19t-18 -44v-640q0 -25 19.5 -44.5t44.5 -19.5h481
q26 0 45.5 19.5t19.5 44.5h-385q-50 0 -89 42.5t-39 92.5zM737 831v-96q0 -28 20 -61.5t44 -33.5h96zM897 576h-96q-51 0 -90 38.5t-39 88.5v129h-320q-25 0 -42 -19t-17 -44v-644q0 -25 17 -43t42 -18h481q25 0 44.5 19.5t19.5 44.5v448zM737 224h-289q-13 0 -22.5 9
t-9.5 22.5t9.5 23t22.5 9.5h289q13 0 22.5 -9.5t9.5 -23t-9.5 -22.5t-22.5 -9zM737 383h-289q-13 0 -22.5 9.5t-9.5 23t9.5 22.5t22.5 9h289q13 0 22.5 -9t9.5 -22.5t-9.5 -23t-22.5 -9.5z" />
    <glyph glyph-name="uniE63A" unicode="&#xe63a;" 
d="M416 768h96v-64h-96v64zM320 704h96v-64h-96v64zM416 640h96v-64h-96v64zM320 576h96v-64h-96v64zM416 512h96v-64h-96v64zM320 448h96v-64h-96v64zM416 384v-64h-96v-224q0 -13 9.5 -22.5t22.5 -9.5h128q13 0 22.5 9.5t9.5 22.5v288h-96zM480 128h-128v64h128v-64z
M904 697l-143 142q-24 24 -64 40.5t-73 16.5h-480q-33 0 -56.5 -23.5t-23.5 -56.5v-864q0 -33 23.5 -56.5t56.5 -23.5h736q33 0 56.5 23.5t23.5 56.5v608q0 33 -16.5 73t-40.5 64h1zM858 651q5 -4 10 -11h-164v163q7 -4 11 -9l143 -143v0zM896 -48q0 -7 -4.5 -11.5
t-11.5 -4.5h-736q-6 0 -11 4.5t-5 11.5v864q0 7 5 11.5t11 4.5h480q7 0 16 -2v-254h254q2 -9 2 -16v-608z" />
  </font>
</defs>
</svg>
